<?xml version="1.0" encoding="utf-8"?>
<!-- Generator: Adobe Illustrator 16.2.0, SVG Export Plug-In . SVG Version: 6.00 Build 0)  -->
<!DOCTYPE svg PUBLIC "-//W3C//DTD SVG 1.1//EN" "http://www.w3.org/Graphics/SVG/1.1/DTD/svg11.dtd">
<svg version="1.1" id="Calque_1" xmlns="http://www.w3.org/2000/svg" xmlns:xlink="http://www.w3.org/1999/xlink" x="0px" y="0px"
	 width="252px" height="150px" viewBox="0 0 252 150" enable-background="new 0 0 252 150" xml:space="preserve">
<rect x="125.555" y="35.398" fill="#FFFFFF" width="90.417" height="80.738"/>
<path fill="#E2001A" d="M215.972,35.398v80.738h-90.229V35.398H215.972 M218.756,32.67h-95.795v86.307h95.795V32.67L218.756,32.67z"
	/>
<g>
	<g>
		<path fill="#E2001A" d="M47.903,95.396c1.138,0,2.045-0.908,2.045-2.328v-0.057c0-1.422-0.965-2.33-2.045-2.33
			c-1.136,0-2.045,0.908-2.045,2.33v0.057C45.858,94.432,46.767,95.396,47.903,95.396z"/>
	</g>
	<g>
		<path fill="#E2001A" d="M80.517,103.922c-1.363,0-2.158,1.021-2.158,2.271v0.057c0,1.25,0.908,2.33,2.215,2.33
			c1.363,0,2.16-1.023,2.16-2.273v-0.057C82.676,105,81.823,103.922,80.517,103.922z"/>
	</g>
	<g>
		<path fill="#E2001A" d="M47.165,63.58c-1.422,0-2.443,1.135-2.614,2.727h5.228C49.608,64.83,48.756,63.58,47.165,63.58z"/>
	</g>
	<g>
		<path fill="#E2001A" d="M59.267,82.16c1.364,0,2.159-1.023,2.159-2.273V79.83c0-1.25-0.909-2.33-2.216-2.33
			c-1.364,0-2.159,1.023-2.159,2.273v0.057C57.051,81.08,57.96,82.16,59.267,82.16z"/>
	</g>
	<g>
		<path fill="#E2001A" d="M71.142,103.922c-1.363,0-2.158,1.021-2.158,2.271v0.057c0,1.25,0.908,2.33,2.215,2.33
			c1.364,0,2.16-1.023,2.16-2.273v-0.057C73.301,105,72.448,103.922,71.142,103.922z"/>
	</g>
	<g>
		<path fill="#E2001A" d="M35.461,32.67v86.307h86.307V32.67H35.461z M72.335,88.863h2.387v1.193
			c0.568-0.682,1.25-1.363,2.443-1.363c1.818,0,2.841,1.193,2.841,3.125v5.453h-2.388v-4.658c0-1.137-0.51-1.703-1.42-1.703
			c-0.908,0-1.478,0.566-1.478,1.703v4.658h-2.387L72.335,88.863L72.335,88.863z M64.493,75.625h2.388v1.193
			c0.567-0.682,1.25-1.363,2.442-1.363c1.818,0,2.842,1.191,2.842,3.125v5.453h-2.387v-4.658c0-1.137-0.512-1.705-1.421-1.705
			s-1.477,0.568-1.477,1.705v4.658h-2.388V75.625L64.493,75.625z M68.698,87.896v-2.102h2.5v2.102H68.698z M71.142,88.863v8.408
			h-2.386v-8.408H71.142z M45.915,85.797v4.26c0.568-0.795,1.363-1.361,2.613-1.361c1.932,0,3.807,1.533,3.807,4.316v0.059
			c0,2.783-1.818,4.316-3.807,4.316c-1.25,0-2.045-0.566-2.613-1.25v1.08h-2.387v-11.42H45.915z M43.642,84.035v-11.42h2.387v11.42
			H43.642z M51.993,84.205c-0.625,1.705-1.307,2.33-2.727,2.33c-0.852,0-1.477-0.229-2.102-0.568l0.795-1.705
			c0.341,0.17,0.682,0.342,1.021,0.342c0.398,0,0.625-0.113,0.854-0.568l-3.295-8.408h2.5l1.932,5.738l1.818-5.738h2.386
			L51.993,84.205z M54.722,79.83c0-2.387,1.932-4.375,4.545-4.375s4.545,1.932,4.545,4.316v0.059c0,2.387-1.932,4.375-4.545,4.375
			S54.722,82.271,54.722,79.83L54.722,79.83z M64.04,93.922c-1.193-0.342-2.5-0.91-2.5-2.5v-0.059c0-1.703,1.363-2.67,3.068-2.67
			c1.079,0,2.215,0.342,3.125,0.967l-0.91,1.646c-0.853-0.512-1.647-0.795-2.272-0.795c-0.567,0-0.853,0.227-0.853,0.566v0.059
			c0,0.453,0.795,0.682,1.705,1.021c1.192,0.396,2.557,0.967,2.557,2.5v0.057c0,1.875-1.42,2.729-3.182,2.729
			c-1.193,0-2.5-0.398-3.58-1.25l1.022-1.592c0.909,0.684,1.875,1.023,2.67,1.023c0.683,0,1.022-0.229,1.022-0.625v-0.113
			C65.801,94.375,65.006,94.205,64.04,93.922z M52.051,62.727h1.192v1.365c0.513-0.795,1.25-1.535,2.615-1.535
			c1.307,0,2.158,0.684,2.613,1.592c0.568-0.908,1.42-1.592,2.841-1.592c1.875,0,3.011,1.25,3.011,3.24v5h-1.192V66.08
			c0-1.59-0.796-2.443-2.103-2.443c-1.193,0-2.217,0.91-2.217,2.5v4.66h-1.193v-4.773c0-1.533-0.795-2.387-2.102-2.387
			s-2.273,1.08-2.273,2.559v4.602h-1.192V62.727z M47.165,62.557c2.386,0,3.75,1.932,3.75,4.262c0,0.113,0,0.227,0,0.396h-6.422
			c0.172,1.705,1.422,2.67,2.842,2.67c1.136,0,1.875-0.455,2.557-1.135l0.739,0.682c-0.795,0.908-1.818,1.533-3.353,1.533
			c-2.217,0-4.035-1.705-4.035-4.205C43.301,64.432,44.948,62.557,47.165,62.557z M49.665,107.896c0,1.875-1.422,2.729-3.182,2.729
			c-1.193,0-2.5-0.396-3.58-1.25l1.022-1.59c0.909,0.682,1.875,1.021,2.67,1.021c0.683,0,1.022-0.227,1.022-0.625v-0.057
			c0-0.512-0.795-0.682-1.762-0.967c-1.192-0.34-2.5-0.908-2.5-2.5v-0.057c0-1.705,1.364-2.672,3.068-2.672
			c1.08,0,2.216,0.342,3.125,0.967l-0.909,1.646c-0.853-0.51-1.647-0.795-2.272-0.795c-0.568,0-0.853,0.229-0.853,0.568v0.057
			c0,0.455,0.795,0.682,1.705,1.021C48.301,105.738,49.665,106.307,49.665,107.896L49.665,107.896z M54.323,110.625
			c-2.5,0-4.375-1.932-4.375-4.318v-0.057c0-2.387,1.818-4.375,4.375-4.375c1.592,0,2.558,0.512,3.354,1.422l-1.479,1.59
			c-0.51-0.566-1.079-0.908-1.932-0.908c-1.193,0-2.045,1.021-2.045,2.271v0.057c0,1.309,0.854,2.33,2.102,2.33
			c0.796,0,1.365-0.34,1.933-0.908l1.42,1.42C56.938,110,55.972,110.625,54.323,110.625z M55.858,97.387
			c-1.818,0-2.842-1.193-2.842-3.125v-5.455h2.387v4.658c0,1.137,0.512,1.705,1.42,1.705c0.91,0,1.478-0.568,1.478-1.705v-4.658
			h2.386v8.408h-2.386v-1.193C57.733,96.762,57.051,97.387,55.858,97.387z M65.972,110.455h-2.386v-4.658
			c0-1.137-0.511-1.705-1.42-1.705s-1.479,0.568-1.479,1.705v4.658h-2.386v-11.42h2.386v4.203c0.568-0.682,1.25-1.363,2.443-1.363
			c1.817,0,2.841,1.193,2.841,3.125V110.455L65.972,110.455z M75.688,106.25c0,2.387-1.932,4.375-4.545,4.375
			c-2.612,0-4.545-1.932-4.545-4.318v-0.057c0-2.387,1.933-4.375,4.545-4.375C73.756,101.875,75.688,103.807,75.688,106.25
			L75.688,106.25z M85.063,106.25c0,2.387-1.932,4.375-4.545,4.375c-2.612,0-4.545-1.932-4.545-4.318v-0.057
			c0-2.387,1.933-4.375,4.545-4.375C83.131,101.875,85.063,103.807,85.063,106.25L85.063,106.25z M88.243,110.455h-2.385v-11.42
			h2.385V110.455z M88.868,93.863h-5.852c0.227,1.08,0.966,1.648,2.045,1.648c0.795,0,1.364-0.229,2.045-0.854l1.364,1.193
			c-0.795,0.967-1.932,1.592-3.409,1.592c-2.5,0-4.375-1.764-4.375-4.318v-0.057c0-2.389,1.705-4.375,4.148-4.375
			c2.783,0,4.091,2.158,4.091,4.545C88.926,93.41,88.868,93.637,88.868,93.863z M92.618,97.387c-1.192,0-2.5-0.398-3.578-1.25
			l1.021-1.592c0.909,0.682,1.875,1.023,2.67,1.023c0.683,0,1.023-0.229,1.023-0.625v-0.059c0-0.512-0.795-0.682-1.762-0.965
			c-1.193-0.342-2.5-0.91-2.5-2.5v-0.059c0-1.703,1.363-2.67,3.067-2.67c1.08,0,2.216,0.342,3.125,0.967l-0.909,1.646
			c-0.852-0.512-1.646-0.795-2.271-0.795c-0.568,0-0.854,0.227-0.854,0.566v0.059c0,0.453,0.797,0.682,1.705,1.021
			c1.193,0.396,2.557,0.967,2.557,2.5v0.057C95.801,96.535,94.438,97.387,92.618,97.387z M102.506,94.66
			c0,1.875-1.42,2.727-3.183,2.727c-1.192,0-2.5-0.396-3.579-1.25l1.022-1.59c0.909,0.682,1.875,1.021,2.67,1.021
			c0.683,0,1.022-0.229,1.022-0.625v-0.057c0-0.512-0.795-0.682-1.761-0.967c-1.193-0.342-2.5-0.908-2.5-2.5v-0.057
			c0-1.705,1.363-2.67,3.067-2.67c1.08,0,2.216,0.34,3.125,0.965l-0.909,1.646c-0.852-0.51-1.647-0.795-2.271-0.795
			c-0.568,0-0.854,0.229-0.854,0.568v0.057c0,0.455,0.795,0.684,1.705,1.023C101.142,92.557,102.506,93.125,102.506,94.66
			L102.506,94.66z"/>
	</g>
	<g>
		<path fill="#E2001A" d="M84.836,90.568c-0.966,0-1.647,0.682-1.818,1.762h3.58C86.426,91.307,85.801,90.568,84.836,90.568z"/>
	</g>
</g>
<g>
	<path fill="#E2001A" d="M132.448,102.102h2.387v1.193c0.568-0.682,1.25-1.363,2.5-1.363c1.08,0,1.933,0.512,2.387,1.307
		c0.738-0.852,1.591-1.307,2.729-1.307c1.761,0,2.841,1.08,2.841,3.068v5.455h-2.388v-4.66c0-1.137-0.511-1.705-1.42-1.705
		c-0.908,0-1.421,0.568-1.421,1.705v4.66h-2.387v-4.66c0-1.137-0.511-1.705-1.42-1.705s-1.421,0.568-1.421,1.705v4.66h-2.387
		V102.102z"/>
	<path fill="#E2001A" d="M145.743,108.068L145.743,108.068c0-1.875,1.422-2.729,3.354-2.729c0.854,0,1.479,0.113,2.046,0.342v-0.113
		c0-0.967-0.625-1.533-1.817-1.533c-0.909,0-1.534,0.17-2.33,0.453l-0.568-1.818c0.909-0.396,1.818-0.682,3.239-0.682
		c1.307,0,2.216,0.342,2.841,0.967s0.909,1.533,0.909,2.67v4.887h-2.272v-0.908c-0.567,0.625-1.363,1.078-2.558,1.078
		C147.051,110.682,145.743,109.771,145.743,108.068z M151.198,107.557v-0.396c-0.397-0.172-0.965-0.342-1.533-0.342
		c-1.022,0-1.647,0.396-1.647,1.137v0.057c0,0.625,0.511,1.023,1.308,1.023C150.46,109.035,151.198,108.41,151.198,107.557z"/>
	<path fill="#E2001A" d="M154.381,99.092h2.387v6.08l2.783-3.068h2.842l-3.183,3.295l3.296,5.113h-2.728l-2.217-3.408l-0.853,0.854
		v2.557h-2.386V99.092H154.381L154.381,99.092z"/>
	<path fill="#E2001A" d="M161.71,106.363L161.71,106.363c0-2.441,1.705-4.375,4.148-4.375c2.783,0,4.09,2.158,4.09,4.547
		c0,0.17,0,0.396-0.057,0.625h-5.854c0.229,1.078,0.967,1.646,2.046,1.646c0.796,0,1.364-0.227,2.046-0.852l1.363,1.191
		c-0.795,0.967-1.933,1.592-3.409,1.592C163.585,110.682,161.71,108.92,161.71,106.363z M167.676,105.625
		c-0.113-1.08-0.795-1.762-1.761-1.762c-0.967,0-1.647,0.682-1.818,1.762H167.676z"/>
	<path fill="#E2001A" d="M170.631,102.102h2.387v1.705c0.511-1.137,1.25-1.932,2.671-1.818v2.5h-0.113
		c-1.592,0-2.558,0.967-2.558,2.955v3.125h-2.387V102.102z"/>
	<path fill="#E2001A" d="M175.403,109.375l1.022-1.59c0.909,0.682,1.875,1.021,2.671,1.021c0.682,0,1.021-0.227,1.021-0.625v-0.057
		c0-0.512-0.795-0.682-1.76-0.967c-1.193-0.34-2.5-0.908-2.5-2.5v-0.057c0-1.705,1.362-2.672,3.066-2.672
		c1.08,0,2.217,0.342,3.125,0.967l-0.908,1.646c-0.853-0.51-1.647-0.795-2.272-0.795c-0.568,0-0.853,0.229-0.853,0.568v0.057
		c0,0.455,0.795,0.682,1.704,1.021c1.193,0.398,2.558,0.967,2.558,2.5v0.059c0,1.875-1.42,2.727-3.183,2.727
		C177.847,110.682,176.483,110.285,175.403,109.375z"/>
	<path fill="#E2001A" d="M182.222,103.58c1.079-0.113,1.591-0.684,1.534-1.533h-0.966v-2.5h2.557v2.102
		c0,2.047-1.021,2.898-2.896,2.955L182.222,103.58z"/>
	<path fill="#E2001A" d="M189.835,99.092h2.387v11.42h-2.387V99.092z"/>
	<path fill="#E2001A" d="M192.847,108.068L192.847,108.068c0-1.875,1.421-2.729,3.409-2.729c0.853,0,1.478,0.113,2.045,0.342v-0.113
		c0-0.967-0.625-1.533-1.817-1.533c-0.908,0-1.533,0.17-2.33,0.453l-0.567-1.818c0.909-0.396,1.817-0.682,3.239-0.682
		c1.307,0,2.216,0.342,2.841,0.967s0.909,1.533,0.909,2.67v4.887h-2.273v-0.908c-0.566,0.625-1.363,1.078-2.557,1.078
		C194.153,110.682,192.847,109.771,192.847,108.068z M198.301,107.557v-0.396c-0.397-0.172-0.966-0.342-1.533-0.342
		c-1.022,0-1.647,0.396-1.647,1.137v0.057c0,0.625,0.512,1.023,1.307,1.023C197.563,109.035,198.301,108.41,198.301,107.557z"/>
	<path fill="#E2001A" d="M203.926,109.375v1.08h-2.386v-11.42h2.386v4.262c0.567-0.797,1.364-1.365,2.614-1.365
		c1.932,0,3.807,1.535,3.807,4.318v0.057c0,2.785-1.818,4.318-3.807,4.318C205.233,110.682,204.438,110.057,203.926,109.375z
		 M207.96,106.307L207.96,106.307c0-1.42-0.966-2.33-2.045-2.33c-1.137,0-2.047,0.91-2.047,2.33v0.057c0,1.422,0.91,2.33,2.047,2.33
		C206.993,108.637,207.96,107.727,207.96,106.307z"/>
</g>
<rect x="0.063" fill="none" width="251.875" height="150"/>
</svg>
