<?xml version="1.0" encoding="utf-8"?>
<!-- Generator: Adobe Illustrator 16.2.0, SVG Export Plug-In . SVG Version: 6.00 Build 0)  -->
<!DOCTYPE svg PUBLIC "-//W3C//DTD SVG 1.1//EN" "http://www.w3.org/Graphics/SVG/1.1/DTD/svg11.dtd">
<svg version="1.1" id="Calque_1" xmlns="http://www.w3.org/2000/svg" xmlns:xlink="http://www.w3.org/1999/xlink" x="0px" y="0px"
	 width="252px" height="150px" viewBox="1291.325 775.395 252 150" enable-background="new 1291.325 775.395 252 150"
	 xml:space="preserve">
<path fill="#E2001A" d="M1507.297,810.793v80.739h-90.228v-80.739H1507.297 M1510.081,808.065h-95.795v86.307h95.795V808.065
	L1510.081,808.065z"/>
<g>
	<g>
		<path fill="#E2001A" d="M1339.229,870.792c1.137,0,2.045-0.909,2.045-2.329v-0.057c0-1.421-0.966-2.33-2.045-2.33
			c-1.136,0-2.045,0.909-2.045,2.33v0.057C1337.183,869.826,1338.092,870.792,1339.229,870.792z"/>
	</g>
	<g>
		<path fill="#E2001A" d="M1371.842,879.316c-1.364,0-2.159,1.022-2.159,2.272v0.057c0,1.25,0.909,2.33,2.216,2.33
			c1.363,0,2.159-1.023,2.159-2.273v-0.057C1374.001,880.395,1373.149,879.316,1371.842,879.316z"/>
	</g>
	<g>
		<path fill="#E2001A" d="M1338.49,838.974c-1.421,0-2.443,1.136-2.614,2.727h5.227
			C1340.933,840.224,1340.081,838.974,1338.49,838.974z"/>
	</g>
	<g>
		<path fill="#E2001A" d="M1350.592,857.554c1.364,0,2.159-1.022,2.159-2.272v-0.058c0-1.249-0.909-2.329-2.216-2.329
			c-1.364,0-2.159,1.022-2.159,2.272v0.057C1348.376,856.474,1349.285,857.554,1350.592,857.554z"/>
	</g>
	<g>
		<path fill="#E2001A" d="M1362.467,879.316c-1.364,0-2.159,1.022-2.159,2.272v0.057c0,1.25,0.909,2.33,2.216,2.33
			c1.364,0,2.159-1.023,2.159-2.273v-0.057C1364.626,880.395,1363.774,879.316,1362.467,879.316z"/>
	</g>
	<g>
		<path fill="#E2001A" d="M1326.786,808.065v86.307h86.307v-86.307H1326.786z M1363.66,864.258h2.387v1.193
			c0.568-0.682,1.25-1.363,2.443-1.363c1.818,0,2.841,1.193,2.841,3.125v5.454h-2.387v-4.659c0-1.136-0.511-1.704-1.42-1.704
			c-0.909,0-1.478,0.568-1.478,1.704v4.659h-2.387V864.258z M1355.819,851.02h2.387v1.193c0.568-0.682,1.25-1.364,2.443-1.364
			c1.818,0,2.841,1.193,2.841,3.125v5.454h-2.387v-4.659c0-1.137-0.511-1.704-1.42-1.704s-1.477,0.567-1.477,1.704v4.659h-2.387
			V851.02L1355.819,851.02z M1360.024,863.292v-2.102h2.5v2.102H1360.024z M1362.467,864.258v8.409h-2.386v-8.409H1362.467z
			 M1337.24,861.191v4.261c0.568-0.795,1.363-1.363,2.613-1.363c1.932,0,3.807,1.534,3.807,4.318v0.057
			c0,2.784-1.818,4.318-3.807,4.318c-1.25,0-2.045-0.568-2.613-1.25v1.079h-2.387v-11.42H1337.24z M1334.967,859.429v-11.42h2.386
			v11.42H1334.967z M1343.319,859.6c-0.625,1.704-1.307,2.329-2.727,2.329c-0.852,0-1.477-0.228-2.102-0.568l0.795-1.704
			c0.341,0.17,0.682,0.341,1.022,0.341c0.398,0,0.625-0.114,0.853-0.568l-3.295-8.409h2.5l1.932,5.738l1.818-5.738h2.386
			L1343.319,859.6z M1346.047,855.224c0-2.386,1.932-4.375,4.545-4.375s4.545,1.932,4.545,4.318v0.057
			c0,2.387-1.932,4.376-4.545,4.376S1346.047,857.667,1346.047,855.224L1346.047,855.224z M1355.365,869.316
			c-1.193-0.342-2.5-0.909-2.5-2.5v-0.058c0-1.704,1.363-2.67,3.068-2.67c1.08,0,2.216,0.341,3.125,0.966l-0.909,1.647
			c-0.853-0.511-1.648-0.795-2.273-0.795c-0.568,0-0.853,0.227-0.853,0.567v0.058c0,0.454,0.795,0.682,1.705,1.022
			c1.193,0.397,2.557,0.966,2.557,2.5v0.057c0,1.875-1.42,2.728-3.182,2.728c-1.193,0-2.5-0.398-3.579-1.25l1.022-1.591
			c0.909,0.682,1.875,1.022,2.67,1.022c0.682,0,1.023-0.228,1.023-0.625v-0.113C1357.126,869.77,1356.331,869.6,1355.365,869.316z
			 M1343.376,838.122h1.193v1.364c0.512-0.795,1.25-1.534,2.614-1.534c1.307,0,2.159,0.682,2.614,1.591
			c0.568-0.909,1.42-1.591,2.841-1.591c1.875,0,3.011,1.25,3.011,3.239v5h-1.193v-4.716c0-1.591-0.796-2.443-2.103-2.443
			c-1.193,0-2.216,0.909-2.216,2.5v4.659h-1.193v-4.773c0-1.534-0.795-2.386-2.102-2.386s-2.273,1.08-2.273,2.557v4.602h-1.193
			V838.122z M1338.49,837.951c2.386,0,3.75,1.932,3.75,4.262c0,0.113,0,0.227,0,0.397h-6.421c0.171,1.705,1.421,2.67,2.841,2.67
			c1.136,0,1.875-0.455,2.557-1.136l0.739,0.682c-0.795,0.909-1.818,1.534-3.353,1.534c-2.216,0-4.034-1.705-4.034-4.205
			C1334.626,839.826,1336.274,837.951,1338.49,837.951z M1340.99,883.292c0,1.875-1.421,2.728-3.182,2.728
			c-1.193,0-2.5-0.397-3.58-1.25l1.023-1.591c0.909,0.682,1.875,1.022,2.67,1.022c0.682,0,1.022-0.227,1.022-0.625v-0.057
			c0-0.512-0.795-0.682-1.761-0.966c-1.193-0.341-2.5-0.909-2.5-2.5v-0.057c0-1.705,1.364-2.671,3.068-2.671
			c1.08,0,2.216,0.341,3.125,0.966l-0.909,1.647c-0.852-0.511-1.648-0.795-2.273-0.795c-0.568,0-0.852,0.228-0.852,0.568v0.057
			c0,0.454,0.795,0.682,1.705,1.022C1339.626,881.133,1340.99,881.701,1340.99,883.292L1340.99,883.292z M1345.649,886.02
			c-2.5,0-4.375-1.932-4.375-4.318v-0.057c0-2.387,1.818-4.375,4.375-4.375c1.591,0,2.557,0.512,3.353,1.421l-1.478,1.591
			c-0.511-0.568-1.08-0.909-1.932-0.909c-1.193,0-2.045,1.022-2.045,2.272v0.057c0,1.307,0.853,2.33,2.102,2.33
			c0.795,0,1.364-0.341,1.932-0.909l1.42,1.42C1348.263,885.395,1347.297,886.02,1345.649,886.02z M1347.183,872.781
			c-1.818,0-2.841-1.193-2.841-3.125v-5.455h2.386v4.659c0,1.137,0.512,1.704,1.421,1.704c0.909,0,1.477-0.567,1.477-1.704v-4.659
			h2.386v8.409h-2.386v-1.193C1349.058,872.156,1348.376,872.781,1347.183,872.781z M1357.297,885.85h-2.386v-4.659
			c0-1.137-0.511-1.705-1.42-1.705s-1.478,0.568-1.478,1.705v4.659h-2.386v-11.421h2.386v4.204c0.568-0.682,1.25-1.363,2.443-1.363
			c1.818,0,2.841,1.193,2.841,3.125V885.85L1357.297,885.85z M1367.013,881.645c0,2.387-1.932,4.375-4.545,4.375
			s-4.545-1.932-4.545-4.318v-0.057c0-2.387,1.932-4.375,4.545-4.375S1367.013,879.201,1367.013,881.645L1367.013,881.645z
			 M1376.388,881.645c0,2.387-1.932,4.375-4.545,4.375s-4.545-1.932-4.545-4.318v-0.057c0-2.387,1.932-4.375,4.545-4.375
			S1376.388,879.201,1376.388,881.645L1376.388,881.645z M1379.569,885.85h-2.386v-11.421h2.386V885.85z M1380.194,869.258h-5.852
			c0.227,1.08,0.966,1.648,2.045,1.648c0.795,0,1.364-0.228,2.045-0.853l1.364,1.193c-0.795,0.966-1.932,1.591-3.409,1.591
			c-2.5,0-4.375-1.762-4.375-4.318v-0.057c0-2.387,1.705-4.375,4.148-4.375c2.784,0,4.091,2.159,4.091,4.545
			C1380.251,868.804,1380.194,869.031,1380.194,869.258z M1383.944,872.781c-1.193,0-2.5-0.398-3.579-1.25l1.022-1.591
			c0.909,0.682,1.875,1.022,2.67,1.022c0.682,0,1.023-0.228,1.023-0.625v-0.057c0-0.512-0.795-0.682-1.762-0.966
			c-1.193-0.342-2.5-0.909-2.5-2.5v-0.058c0-1.704,1.364-2.67,3.068-2.67c1.08,0,2.216,0.341,3.125,0.966l-0.909,1.647
			c-0.852-0.511-1.647-0.795-2.272-0.795c-0.568,0-0.853,0.227-0.853,0.567v0.058c0,0.454,0.796,0.682,1.705,1.022
			c1.193,0.397,2.557,0.966,2.557,2.5v0.057C1387.126,871.929,1385.763,872.781,1383.944,872.781z M1393.831,870.054
			c0,1.875-1.42,2.728-3.182,2.728c-1.193,0-2.5-0.398-3.58-1.25l1.023-1.591c0.909,0.682,1.875,1.022,2.67,1.022
			c0.682,0,1.022-0.228,1.022-0.625v-0.057c0-0.512-0.795-0.682-1.761-0.966c-1.193-0.342-2.5-0.909-2.5-2.5v-0.058
			c0-1.704,1.363-2.67,3.068-2.67c1.08,0,2.216,0.341,3.125,0.966l-0.909,1.647c-0.852-0.511-1.648-0.795-2.272-0.795
			c-0.568,0-0.853,0.227-0.853,0.567v0.058c0,0.454,0.795,0.682,1.705,1.022C1392.467,867.951,1393.831,868.52,1393.831,870.054
			L1393.831,870.054z"/>
	</g>
	<g>
		<path fill="#E2001A" d="M1376.161,865.963c-0.966,0-1.648,0.682-1.818,1.762h3.58
			C1377.751,866.701,1377.126,865.963,1376.161,865.963z"/>
	</g>
</g>
<g>
	<path fill="#E2001A" d="M1423.774,877.497h2.386v1.193c0.568-0.683,1.25-1.364,2.5-1.364c1.08,0,1.933,0.512,2.387,1.307
		c0.738-0.852,1.591-1.307,2.728-1.307c1.761,0,2.841,1.08,2.841,3.068v5.455h-2.387v-4.659c0-1.137-0.511-1.705-1.42-1.705
		s-1.421,0.568-1.421,1.705v4.659h-2.387v-4.659c0-1.137-0.511-1.705-1.42-1.705s-1.421,0.568-1.421,1.705v4.659h-2.386V877.497z"/>
	<path fill="#E2001A" d="M1437.069,883.463L1437.069,883.463c0-1.875,1.421-2.728,3.353-2.728c0.853,0,1.478,0.113,2.046,0.341
		v-0.113c0-0.966-0.625-1.534-1.818-1.534c-0.909,0-1.534,0.171-2.33,0.454l-0.568-1.818c0.909-0.397,1.818-0.682,3.239-0.682
		c1.307,0,2.216,0.342,2.841,0.966c0.625,0.625,0.909,1.534,0.909,2.671v4.887h-2.272v-0.909c-0.568,0.625-1.364,1.079-2.558,1.079
		C1438.376,886.076,1437.069,885.167,1437.069,883.463z M1442.524,882.951v-0.397c-0.398-0.171-0.966-0.341-1.534-0.341
		c-1.022,0-1.647,0.397-1.647,1.137v0.057c0,0.625,0.511,1.022,1.307,1.022C1441.785,884.429,1442.524,883.804,1442.524,882.951z"/>
	<path fill="#E2001A" d="M1445.706,874.486h2.387v6.08l2.783-3.068h2.842l-3.183,3.295l3.296,5.114h-2.728l-2.216-3.409
		l-0.853,0.853v2.557h-2.386v-11.421H1445.706z"/>
	<path fill="#E2001A" d="M1453.035,881.758L1453.035,881.758c0-2.442,1.705-4.375,4.148-4.375c2.784,0,4.091,2.159,4.091,4.546
		c0,0.17,0,0.397-0.057,0.625h-5.853c0.228,1.079,0.966,1.647,2.045,1.647c0.796,0,1.364-0.227,2.046-0.852l1.363,1.192
		c-0.795,0.966-1.932,1.591-3.409,1.591C1454.91,886.076,1453.035,884.315,1453.035,881.758z M1459.001,881.02
		c-0.113-1.08-0.795-1.762-1.761-1.762s-1.647,0.682-1.818,1.762H1459.001z"/>
	<path fill="#E2001A" d="M1461.956,877.497h2.387v1.704c0.511-1.137,1.25-1.932,2.67-1.818v2.5h-0.113
		c-1.591,0-2.557,0.966-2.557,2.955v3.125h-2.387V877.497z"/>
	<path fill="#E2001A" d="M1466.729,884.77l1.022-1.591c0.909,0.682,1.875,1.022,2.671,1.022c0.682,0,1.022-0.227,1.022-0.625v-0.057
		c0-0.512-0.795-0.682-1.761-0.966c-1.193-0.341-2.5-0.909-2.5-2.5v-0.057c0-1.705,1.363-2.671,3.067-2.671
		c1.08,0,2.217,0.341,3.125,0.966l-0.908,1.647c-0.853-0.511-1.648-0.795-2.273-0.795c-0.568,0-0.852,0.228-0.852,0.568v0.057
		c0,0.454,0.795,0.682,1.704,1.022c1.193,0.398,2.557,0.966,2.557,2.5v0.058c0,1.874-1.42,2.727-3.182,2.727
		C1469.172,886.076,1467.809,885.679,1466.729,884.77z"/>
	<path fill="#E2001A" d="M1473.547,878.974c1.079-0.113,1.591-0.682,1.534-1.533h-0.966v-2.5h2.557v2.102
		c0,2.046-1.022,2.898-2.897,2.955L1473.547,878.974z"/>
	<path fill="#E2001A" d="M1481.16,874.486h2.387v11.421h-2.387V874.486z"/>
	<path fill="#E2001A" d="M1484.172,883.463L1484.172,883.463c0-1.875,1.421-2.728,3.409-2.728c0.853,0,1.478,0.113,2.045,0.341
		v-0.113c0-0.966-0.625-1.534-1.817-1.534c-0.909,0-1.534,0.171-2.33,0.454l-0.568-1.818c0.909-0.397,1.818-0.682,3.239-0.682
		c1.307,0,2.216,0.342,2.841,0.966c0.625,0.625,0.909,1.534,0.909,2.671v4.887h-2.273v-0.909c-0.567,0.625-1.363,1.079-2.557,1.079
		C1485.479,886.076,1484.172,885.167,1484.172,883.463z M1489.626,882.951v-0.397c-0.397-0.171-0.966-0.341-1.533-0.341
		c-1.023,0-1.648,0.397-1.648,1.137v0.057c0,0.625,0.512,1.022,1.307,1.022C1488.888,884.429,1489.626,883.804,1489.626,882.951z"/>
	<path fill="#E2001A" d="M1495.251,884.77v1.08h-2.386v-11.421h2.386v4.262c0.568-0.796,1.364-1.364,2.614-1.364
		c1.932,0,3.807,1.534,3.807,4.318v0.057c0,2.784-1.818,4.318-3.807,4.318C1496.559,886.076,1495.763,885.451,1495.251,884.77z
		 M1499.285,881.701L1499.285,881.701c0-1.42-0.966-2.329-2.045-2.329c-1.137,0-2.046,0.909-2.046,2.329v0.057
		c0,1.421,0.909,2.33,2.046,2.33C1498.319,884.031,1499.285,883.122,1499.285,881.701z"/>
</g>
<rect x="1291.388" y="775.395" fill="none" width="251.875" height="150"/>
</svg>
